<?xml version="1.0" standalone="no"?><!DOCTYPE svg PUBLIC "-//W3C//DTD SVG 1.1//EN" "http://www.w3.org/Graphics/SVG/1.1/DTD/svg11.dtd"><svg t="1670508101676" class="icon" viewBox="0 0 1024 1024" version="1.1" xmlns="http://www.w3.org/2000/svg" p-id="11037" xmlns:xlink="http://www.w3.org/1999/xlink" width="200" height="200"><path d="M512 0c282.763636 0 512 229.236364 512 512s-229.236364 512-512 512S0 794.763636 0 512 229.236364 0 512 0z m257.652364 294.167273L480.884364 663.924364l-232.727273-192.930909c-17.431273-14.429091-41.821091-10.053818-54.504727 9.774545-12.683636 19.851636-8.843636 47.639273 8.587636 62.068364l261.352727 216.669091c16.197818 13.428364 38.749091 10.682182 52.084364-6.4l312.273454-399.872c14.312727-18.338909 12.893091-46.405818-3.211636-62.72-16.104727-16.314182-40.750545-14.661818-55.086545 3.653818z" p-id="11038" fill="#fff"></path></svg>