<svg width="20" height="20" xmlns="http://www.w3.org/2000/svg"><path d="M15.553 5.021A13.182 13.182 0 0 0 12.253 4a9.45 9.45 0 0 0-.423.864 12.313 12.313 0 0 0-3.659 0A9.173 9.173 0 0 0 7.744 4 13.138 13.138 0 0 0 4.44 5.023c-2.089 3.108-2.655 6.138-2.372 9.124a13.277 13.277 0 0 0 4.048 2.042c.326-.441.617-.91.867-1.405a8.582 8.582 0 0 1-1.365-.654c.115-.084.227-.171.335-.261 2.632 1.212 5.493 1.212 8.094 0 .11.09.222.177.335.26a8.565 8.565 0 0 1-1.368.656c.25.493.54.964.867 1.405a13.253 13.253 0 0 0 4.051-2.043c.332-3.462-.568-6.464-2.378-9.126Zm-8.21 7.29c-.791 0-1.44-.727-1.44-1.611s.635-1.612 1.44-1.612c.803 0 1.451.726 1.438 1.612 0 .884-.635 1.61-1.439 1.61Zm5.315 0c-.79 0-1.439-.727-1.439-1.611s.635-1.612 1.439-1.612 1.452.726 1.438 1.612c0 .884-.634 1.61-1.438 1.61Z" ></path></svg>