<?xml version="1.0" standalone="no"?><!DOCTYPE svg PUBLIC "-//W3C//DTD SVG 1.1//EN" "http://www.w3.org/Graphics/SVG/1.1/DTD/svg11.dtd"><svg t="1670506977448" class="icon" viewBox="0 0 1024 1024" version="1.1" xmlns="http://www.w3.org/2000/svg" p-id="1370" xmlns:xlink="http://www.w3.org/1999/xlink" width="200" height="200"><path d="M653.368-0.002c-92.62 0-172.84 54.12-210.68 132.4l36.14 25.36c29.42-67.24 96.6-114.32 174.54-114.32 104.98 0 190.4 85.4 190.4 190.4 0 54.24-22.8 103.24-59.32 137.94a157.004 157.004 0 0 1 30.32 31.1c44.62-42.6 72.44-102.64 72.44-169.04 0-128.938-104.9-233.84-233.84-233.84z m0 424.22c-13.38 0-26.48-1.38-39.1-4.02a188.574 188.574 0 0 1-52.86-19.7c-36.52-20.22-65.74-52.1-82.58-90.6a188.456 188.456 0 0 1-12.1-38.2 190.498 190.498 0 0 1-3.78-37.86c0-12.98 1.3-25.64 3.8-37.88a42.5 42.5 0 0 0-19.92-4.92c-9.2 0-17.7 2.9-24.68 7.84-1.72 11.4-2.62 23.08-2.62 34.96 0 11.86 0.88 23.52 2.62 34.92a231.82 231.82 0 0 0 20.54 66.5c21.06 43.52 55.2 79.58 97.3 103.02 22.86 12.72 48.04 21.74 74.78 26.18 12.56 2.12 25.46 3.2 38.6 3.2 14.68 0 29.06-1.36 43-3.98 7.12-13.44 7.52-30.04-0.34-44.28-13.72 3.16-28 4.82-42.66 4.82z" fill="#126b40" p-id="1371"></path><path d="M653.368-0.002c-92.62 0-172.84 54.12-210.68 132.4l36.14 25.36c29.42-67.24 96.6-114.32 174.54-114.32 104.98 0 190.4 85.4 190.4 190.4 0 54.24-22.8 103.24-59.32 137.94a157.004 157.004 0 0 1 30.32 31.1c44.62-42.6 72.44-102.64 72.44-169.04 0-128.938-104.9-233.84-233.84-233.84z m0 424.22c-13.38 0-26.48-1.38-39.1-4.02a188.574 188.574 0 0 1-52.86-19.7c-36.52-20.22-65.74-52.1-82.58-90.6a188.456 188.456 0 0 1-12.1-38.2 190.498 190.498 0 0 1-3.78-37.86c0-12.98 1.3-25.64 3.8-37.88a42.5 42.5 0 0 0-19.92-4.92c-9.2 0-17.7 2.9-24.68 7.84-1.72 11.4-2.62 23.08-2.62 34.96 0 11.86 0.88 23.52 2.62 34.92a231.82 231.82 0 0 0 20.54 66.5c21.06 43.52 55.2 79.58 97.3 103.02 22.86 12.72 48.04 21.74 74.78 26.18 12.56 2.12 25.46 3.2 38.6 3.2 14.68 0 29.06-1.36 43-3.98 7.12-13.44 7.52-30.04-0.34-44.28-13.72 3.16-28 4.82-42.66 4.82z" fill="#126b40" p-id="1372"></path><path d="M703.144 359.74c-75.822-43.776-172.776-17.798-216.552 58.026-31.336 54.276-26.922 119.378 5.926 168.054L288.474 939.23a10.36 10.36 0 0 0-0.624 9.082l28.17 69.234a10.356 10.356 0 0 0 11.01 6.356l74.042-10.222a10.354 10.354 0 0 0 7.552-5.08l21.564-37.35a11.422 11.422 0 0 0 0.928-9.376l-13.976-41.33a8.916 8.916 0 0 1 6.696-11.598l37.112-7.426a8.914 8.914 0 0 0 6.696-11.598l-12.124-35.854a8.916 8.916 0 0 1 6.696-11.598l37.906-7.586a8.916 8.916 0 0 0 6.696-11.598l-12.382-36.622a8.916 8.916 0 0 1 6.696-11.598l42.782-8.562a11.424 11.424 0 0 0 7.654-5.492l61.094-105.82c58.578 4.11 117.164-24.618 148.502-78.896 43.782-75.828 17.802-172.78-58.02-216.556z m-70.648 122.364c-22.222-12.83-29.836-41.246-17.006-63.47 12.83-22.222 41.246-29.836 63.468-17.006 22.222 12.83 29.836 41.248 17.006 63.47-12.828 22.222-41.244 29.836-63.468 17.006z" fill="#126b40" p-id="1373"></path><path d="M1022.602 939.228l-21.564-37.35a11.424 11.424 0 0 0-7.644-5.494l-42.778-8.556c-5.278-1.064-8.426-6.514-6.71-11.596l12.138-35.852c1.716-5.104-1.434-10.554-6.71-11.596l-37.112-7.426a8.92 8.92 0 0 1-6.688-11.618l12.378-36.612a8.926 8.926 0 0 0-6.688-11.596l-37.914-7.6a8.888 8.888 0 0 1-6.688-11.596l13.964-41.324a11.374 11.374 0 0 0-0.934-9.38l-61.084-105.818c32.854-48.664 37.264-113.766 5.928-168.054a159.54 159.54 0 0 0-9.728-14.876c-32.138 30.684-72.964 52.334-118.392 60.802a46.082 46.082 0 0 1-17.784 18.414c-22.236 12.834-50.64 5.212-63.474-17.002a8.968 8.968 0 0 1-0.348-0.63c-7.926-14.202-7.6-30.836-0.5-44.278a45.914 45.914 0 0 1 17.85-18.566c22.236-12.834 50.64-5.212 63.474 17.002 0.152 0.26 0.304 0.522 0.434 0.782 33.768-7.754 64.126-24.516 88.424-47.622-49.402-38.328-119.044-45.234-176.524-12.052-18.61 10.748-34.224 24.69-46.514 40.76a156.292 156.292 0 0 0-21.432 37.784c-17.372 43.538-15.332 94.288 9.924 138.022 31.336 54.266 89.924 82.996 148.51 78.89l204.036 353.416a10.454 10.454 0 0 0 7.556 5.082l74.05 10.206a10.34 10.34 0 0 0 11.01-6.34l28.166-69.25a10.296 10.296 0 0 0-0.632-9.076z" fill="#126b40" p-id="1374"></path><path d="M500.518 660.866a17.198 17.198 0 0 0-23.492 6.294l-168.528 291.9-13.01-31.978-7.014 12.148a10.356 10.356 0 0 0-0.624 9.082l11.1 27.284 16.418 40.352 0.65 1.596a10.356 10.356 0 0 0 11.01 6.356l74.042-10.222a10.35 10.35 0 0 0 7.552-5.082l21.564-37.35a11.422 11.422 0 0 0 0.928-9.376l-6.874-20.328-15.62 27.054a10.36 10.36 0 0 1-7.552 5.082l-66.606 9.196 172.348-298.516a17.194 17.194 0 0 0-6.292-23.492zM696.374 463.684c7.122-13.442 7.514-30.054-0.348-44.276 33.768-7.754 64.126-24.516 88.424-47.622a156.63 156.63 0 0 1 30.314 31.096c-32.138 30.684-72.962 52.334-118.39 60.802z" fill="#126b40" p-id="1375"></path><path d="M1022.602 939.228l-17.862-30.938-0.004 0.01-28.794 69.254c-1.82 4.386-6.46 6.994-11.254 6.34l-5.752-0.776-168.034-291.042a17.2 17.2 0 0 0-29.788 17.198l154.752 268.04-26.878-3.624c-3.242-0.456-7.568-1.6-9.212-4.36l22.676 39.278a10.454 10.454 0 0 0 7.556 5.082l37.474 5.166 34.862 4.812-0.004-0.008 1.716 0.236a10.34 10.34 0 0 0 11.01-6.34l28.166-69.248a10.296 10.296 0 0 0-0.63-9.08z" fill="#126b40" p-id="1376"></path><path d="M512.248 181.218l-33.42-23.46a186.772 186.772 0 0 0-12.08 38.2c13.6 7.16 22.88 21.44 22.88 37.88s-9.28 30.72-22.9 37.86a42.48 42.48 0 0 1-19.9 4.92c-9.2 0-17.7-2.9-24.68-7.86-10.96-7.72-18.12-20.48-18.12-34.92 0-14.44 7.16-27.22 18.12-34.96 3.52-23.48 10.56-45.82 20.54-66.48l-32.44-22.76a126.87 126.87 0 0 0-72.92-23.04H64.288c-35.5 0-64.28 28.78-64.28 64.28v165.9c0 35.5 28.78 64.28 64.28 64.28h273.04c26.1 0 51.56-8.04 72.92-23.04l32.44-22.76 36.14-25.36 33.42-23.44c36.48-25.598 36.48-79.66 0-105.24z" fill="#126b40" p-id="1377"></path><path d="M478.828 157.758a186.772 186.772 0 0 0-12.08 38.2 42.5 42.5 0 0 0-19.92-4.92c-9.2 0-17.7 2.9-24.68 7.84 3.52-23.48 10.56-45.82 20.54-66.48l36.14 25.36z" fill="#126b40" p-id="1378"></path><path d="M478.828 177.758l33.42 23.46c15.176 10.642 24.016 26.214 26.564 42.614 0.218-1.402 0.386-2.812 0.512-4.224l0.02-0.228c0.118-1.378 0.192-2.76 0.224-4.144l0.004-0.148a65.012 65.012 0 0 0-1.932-17.052c-0.048-0.19-0.102-0.376-0.15-0.566a65.044 65.044 0 0 0-1.27-4.27 64.808 64.808 0 0 0-1.154-3.156c-0.114-0.29-0.226-0.58-0.344-0.87a64.67 64.67 0 0 0-1.446-3.236c-0.1-0.208-0.19-0.418-0.292-0.626a63.188 63.188 0 0 0-4.3-7.414c-0.19-0.282-0.398-0.554-0.592-0.834a63.382 63.382 0 0 0-1.896-2.586c-0.298-0.384-0.612-0.762-0.922-1.14a62.016 62.016 0 0 0-2.93-3.354 63.36 63.36 0 0 0-1.96-1.992c-0.388-0.378-0.772-0.758-1.172-1.13a66.38 66.38 0 0 0-2.272-1.996c-0.364-0.308-0.716-0.626-1.09-0.928a66.02 66.02 0 0 0-3.6-2.724l-33.42-23.46a187.104 187.104 0 0 0-6.064 15.746l6.062 4.258zM64.288 106.598h273.04c26.1 0 51.56 8.04 72.92 23.04l25.728 18.052a233.256 233.256 0 0 1 6.712-15.292l-32.44-22.76a126.87 126.87 0 0 0-72.92-23.04H64.288c-35.5 0-64.28 28.78-64.28 64.28v20c0-35.5 28.78-64.28 64.28-64.28z" fill="#126b40" p-id="1379"></path><path d="M165.362 150.016c32.21-0.334 45.312 21.402 45.312 21.402s12.668-21.07 44.878-21.402 56.542 26.632 56.802 51.756c0.26 25.122-3.462 43.118-49.826 82.592-16.282 13.862-29.966 23.71-38.932 29.734a20.818 20.818 0 0 1-22.884 0.238c-9.088-5.838-22.974-15.4-39.54-28.92-47.174-38.504-51.268-56.42-51.528-81.542-0.26-25.124 23.508-53.524 55.718-53.858z" fill="#126b40" p-id="1380"></path><path d="M422.148 218.878c3.52-23.48 10.56-45.82 20.54-66.48 37.84-78.28 118.06-132.4 210.68-132.4 125.58 0 228.338 99.506 233.61 223.812 0.14-3.308 0.23-6.63 0.23-9.972 0-128.94-104.9-233.84-233.84-233.84-92.62 0-172.84 54.12-210.68 132.4-9.98 20.66-17.02 43-20.54 66.48-1.72 11.4-2.62 23.08-2.62 34.96 0 3.36 0.09 6.698 0.23 10.022 0.36-8.45 1.154-16.79 2.39-24.982z" fill="#126b40" p-id="1381"></path></svg>