<?xml version="1.0" standalone="no"?><!DOCTYPE svg PUBLIC "-//W3C//DTD SVG 1.1//EN" "http://www.w3.org/Graphics/SVG/1.1/DTD/svg11.dtd"><svg t="1670559250430" class="icon" viewBox="0 0 1024 1024" version="1.1" xmlns="http://www.w3.org/2000/svg" p-id="3485" xmlns:xlink="http://www.w3.org/1999/xlink" width="200" height="200"><path d="M128 128v576h192v192h576V320h-192V128z m64 64h448v146.016L337.984 640H192z m160 64v32H256v64h158.016c-4.16 36.736-15.392 65.76-34.016 86.016a145.408 145.408 0 0 1-28.992-13.024C328.512 411.616 320 397.376 320 384H256c0 38.112 23.488 69.888 55.008 91.008A264.544 264.544 0 0 1 256 480v64c56.736 0 104-12.992 140-36.992 16.736 2.88 33.76 4.992 52 4.992v-60c17.376-29.12 26.624-63.136 30.016-100H512V288h-96V256z m334.016 128H832v448H384v-146.016zM640 443.008l-30.016 91.008-64 192-1.984 4.992V768h64v-28l0.992-4h62.016l0.992 4V768h64v-36.992l-2.016-5.024-64-192z m0 200.992l8.992 28h-17.984z" p-id="3486"></path></svg>