<svg width="20" height="20" fill="none" xmlns="http://www.w3.org/2000/svg"><path d="m2.952 11.223.056-.088 3.376-5.281a.115.115 0 0 1 .203.014c.564 1.264 1.05 2.836.822 3.815-.097.402-.364.948-.664 1.452a2.658 2.658 0 0 1-.126.215.115.115 0 0 1-.096.05H3.05a.115.115 0 0 1-.099-.177Z" fill="#595959"></path><path d="M18 12.204v.836a.12.12 0 0 1-.072.11c-.261.111-1.156.522-1.528 1.04-.95 1.32-1.675 3.21-3.296 3.21H6.34A4.347 4.347 0 0 1 2 13.045v-.077c0-.064.052-.116.116-.116h3.77c.075 0 .13.07.123.143-.026.245.019.496.135.724.224.454.688.738 1.19.738H9.2V13H7.355a.119.119 0 0 1-.096-.187l.066-.098c.175-.248.424-.634.672-1.072.17-.296.334-.612.466-.93.026-.057.048-.116.069-.173.036-.101.073-.196.1-.29.027-.08.048-.165.07-.243.062-.27.089-.555.089-.851 0-.116-.006-.237-.016-.353a4.579 4.579 0 0 0-.038-.38 3.938 3.938 0 0 0-.052-.339 5.71 5.71 0 0 0-.106-.507l-.015-.064c-.032-.116-.059-.226-.096-.342a12.929 12.929 0 0 0-.355-1.051c-.046-.132-.1-.259-.153-.385-.079-.191-.159-.364-.232-.528a7.367 7.367 0 0 1-.101-.212 7.444 7.444 0 0 0-.111-.232c-.027-.058-.057-.111-.079-.164l-.228-.422a.074.074 0 0 1 .084-.108l1.427.387h.004l.005.001.188.052.207.059.076.021v-.848c0-.409.328-.741.733-.741.203 0 .387.083.519.217a.745.745 0 0 1 .215.524V5l.152.043a.12.12 0 0 1 .034.017c.038.028.091.07.159.12.053.043.11.095.18.148a10.83 10.83 0 0 1 .619.544c.232.216.492.47.74.75.069.078.137.158.206.242.07.085.143.17.207.253.084.112.175.228.253.35.038.057.08.116.116.173.102.153.191.312.276.47.036.074.074.154.106.233.094.212.17.428.217.644a.807.807 0 0 1 .03.142v.011c.017.064.022.132.027.201a2.155 2.155 0 0 1-.116.944c-.032.091-.064.186-.105.275-.08.185-.175.37-.287.544a3.063 3.063 0 0 1-.121.196c-.047.068-.095.132-.137.195-.059.08-.122.164-.186.238a8.531 8.531 0 0 1-.444.528c-.053.063-.11.127-.169.184a6.926 6.926 0 0 1-.396.39l-.147.136a.12.12 0 0 1-.078.029h-1.136v1.457h1.429c.32 0 .624-.113.87-.321.083-.073.45-.39.883-.87a.112.112 0 0 1 .055-.033l3.948-1.141a.116.116 0 0 1 .148.112Z" fill="#595959"></path></svg>