<svg width="24" height="24" fill="none" xmlns="http://www.w3.org/2000/svg"><g clip-path="url(#icn_pinned_svg__a)" fill="#292525"><path d="M18.724 9.785a.74.74 0 0 0 .974.06l2.019-1.571a.745.745 0 0 0 .235-.844.735.735 0 0 0-.168-.26L16.83 2.216a.734.734 0 0 0-.865-.13.746.746 0 0 0-.238.197l-1.57 2.02a.737.737 0 0 0 .058.974l.637.637-2.598 2.605a4.92 4.92 0 0 0-5.03 1.201.764.764 0 0 0 0 1.083l2.474 2.481-2.488 2.487a.72.72 0 0 0 1.018 1.018l2.486-2.486 2.464 2.472a.76.76 0 0 0 1.079 0 4.947 4.947 0 0 0 1.215-4.989l2.622-2.63.63.63Z"></path><path d="M7.913 21.313c1.16.47 2.4.703 3.65.686 1.24.001 2.468-.244 3.613-.721a9.426 9.426 0 0 0 3.063-2.06 9.495 9.495 0 0 0 2.045-3.082A9.544 9.544 0 0 0 21 12.499c0-.2-.079-.392-.22-.533a.747.747 0 0 0-1.278.533 8.034 8.034 0 0 1-1.336 4.446 7.956 7.956 0 0 1-3.566 2.948 7.896 7.896 0 0 1-4.591.457 7.929 7.929 0 0 1-4.07-2.19 8.014 8.014 0 0 1-2.175-4.096 8.046 8.046 0 0 1 .454-4.622 7.986 7.986 0 0 1 2.929-3.588 7.908 7.908 0 0 1 4.416-1.345c.2 0 .39-.08.53-.221a.757.757 0 0 0 0-1.066.747.747 0 0 0-.53-.221 9.384 9.384 0 0 0-3.65.686A9.433 9.433 0 0 0 4.81 5.738 9.503 9.503 0 0 0 2.73 8.835 9.554 9.554 0 0 0 4.81 19.262a9.432 9.432 0 0 0 3.104 2.05Z"></path></g><defs><clipPath id="icn_pinned_svg__a"><path fill="#fff" d="M0 0h24v24H0z"></path></clipPath></defs></svg>