<?xml version="1.0" standalone="no"?><!DOCTYPE svg PUBLIC "-//W3C//DTD SVG 1.1//EN" "http://www.w3.org/Graphics/SVG/1.1/DTD/svg11.dtd"><svg t="1670560697987" class="icon" viewBox="0 0 1024 1024" version="1.1" xmlns="http://www.w3.org/2000/svg" p-id="11228" xmlns:xlink="http://www.w3.org/1999/xlink" width="200" height="200"><path d="M924.2 899.4L698.9 674.1l187.8 0.4c8.8 0 16-7.1 16-16 0-8.8-7.1-16-16-16l-231-0.5c-4.2 0-8.3 1.7-11.3 4.7s-4.7 7.1-4.7 11.3l-0.2 226.6c0 8.8 7.1 16 16 16 8.8 0 16-7.2 16-16l0.2-192.5L901.6 922c3.1 3.1 7.2 4.7 11.3 4.7s8.2-1.6 11.3-4.7c6.2-6.2 6.2-16.4 0-22.6zM384.9 648.8c-3-3-7.1-4.7-11.3-4.7l-231.1 0.4c-8.8 0-16 7.2-16 16s7.2 16 16 16l187.8-0.4-225.2 225.4c-6.2 6.2-6.2 16.4 0 22.6 3.1 3.1 7.2 4.7 11.3 4.7s8.2-1.6 11.3-4.7l229.9-229.9 0.2 192.5c0 8.8 7.2 16 16 16s16-7.2 16-16l-0.2-226.6c0-4.2-1.7-8.3-4.7-11.3zM644.3 379.2c3 3 7.1 4.7 11.3 4.7l231.1-0.4c8.8 0 16-7.2 16-16s-7.2-16-16-16l-187.8 0.4 225.3-225.3c6.2-6.2 6.2-16.4 0-22.6-6.2-6.2-16.4-6.2-22.6 0l-230 229.8-0.2-192.5c0-8.8-7.2-16-16-16s-16 7.2-16 16l0.3 226.6c-0.1 4.2 1.6 8.3 4.6 11.3zM330.3 349.7l-187.8-0.4c-8.8 0-16 7.1-16 16 0 8.8 7.1 16 16 16l231.1 0.4c4.2 0 8.3-1.7 11.3-4.7s4.7-7.1 4.7-11.3l0.2-226.6c0-8.8-7.1-16-16-16-8.8 0-16 7.2-16 16l-0.2 192.5-230-229.9c-6.2-6.2-16.4-6.2-22.6 0-6.2 6.2-6.2 16.4 0 22.6l225.3 225.4z" p-id="11229"></path></svg>