<?xml version="1.0" standalone="no"?><!DOCTYPE svg PUBLIC "-//W3C//DTD SVG 1.1//EN" "http://www.w3.org/Graphics/SVG/1.1/DTD/svg11.dtd"><svg t="1670507138947" class="icon" viewBox="0 0 1024 1024" version="1.1" xmlns="http://www.w3.org/2000/svg" p-id="3646" xmlns:xlink="http://www.w3.org/1999/xlink" width="200" height="200"><path d="M512 64C264.96 64 64 264.96 64 512s200.96 448 448 448 448-200.96 448-448S759.04 64 512 64z m384 448c0 18.346667-1.28 36.48-3.84 54.186667-107.626667 48.106667-208.96 63.466667-300.693333 59.2 50.24-47.786667 95.466667-106.773333 128.106666-179.413334 27.733333-6.933333 48.32-32.106667 48.32-62.08 0-15.04-5.12-28.8-13.76-39.68 8.64-35.946667 14.293333-74.453333 16.533334-115.84C847.68 298.773333 896 399.893333 896 512z m-622.4 88.106667c46.933333 24.106667 101.226667 46.72 161.493333 63.04-66.56 39.786667-131.52 63.786667-176.853333 77.226666 0-50.88 5.546667-97.6 15.36-140.266666zM378.666667 383.786667c1.706667 0.106667 3.52 0.213333 5.333333 0.213333 35.306667 0 64-28.693333 64-64 0-2.666667-0.213333-5.226667-0.533333-7.786667 106.453333-93.653333 222.933333-130.88 247.146666-137.92 4.48 2.453333 8.853333 4.906667 13.226667 7.466667 0.426667 50.56-4.693333 96.746667-14.293333 139.093333-30.4 5.013333-53.546667 31.36-53.546667 63.146667 0 16.746667 6.4 31.893333 16.96 43.306667-29.866667 62.933333-70.293333 114.24-115.093333 156.053333-8.96-4.693333-19.093333-7.36-29.866667-7.36-22.506667 0-42.346667 11.626667-53.76 29.226667-63.36-16.32-119.573333-40.32-166.933333-65.813334 21.653333-60.8 52.373333-112.32 87.36-155.626666zM512 128c32.533333 0 64.106667 4.053333 94.293333 11.733333-52.586667 23.146667-125.333333 62.186667-195.093333 122.346667-8.213333-3.84-17.386667-6.08-27.093333-6.08-35.306667 0-64 28.693333-64 64 0 10.453333 2.56 20.266667 6.933333 29.013333-35.84 44.693333-67.626667 97.066667-91.093333 157.866667-48.853333-31.36-82.986667-60.586667-99.306667-75.52C173.653333 258.24 327.893333 128 512 128zM128 507.2c22.293333 17.493333 51.946667 38.826667 88 60.8-12.906667 48.426667-20.693333 101.44-21.653333 159.68C152.533333 666.133333 128 591.893333 128 512v-4.8zM512 896c-94.293333 0-180.8-34.133333-247.68-90.773333 54.826667-15.466667 142.933333-46.506667 230.4-103.573334 5.44 1.493333 11.306667 2.346667 17.28 2.346667 17.493333 0 33.28-7.04 44.8-18.346667 22.08 2.133333 44.693333 3.306667 67.84 3.306667 77.653333 0 161.066667-13.12 248.213333-45.76-53.76 147.413333-195.2 252.8-360.853333 252.8z" p-id="3647" fill="#126b40"></path></svg>