<svg width="20" height="20"  xmlns="http://www.w3.org/2000/svg"><path d="M16.362 6.44c.01.15.01.3.01.451 0 4.61-3.302 9.927-9.34 9.927v-.003A8.896 8.896 0 0 1 2 15.251c.26.034.52.05.781.05a6.347 6.347 0 0 0 4.077-1.496c-1.404-.028-2.636-1.001-3.067-2.422.492.1 1 .08 1.482-.06-1.531-.33-2.633-1.76-2.633-3.42v-.045c.457.27.967.42 1.49.437C2.688 7.27 2.243 5.231 3.114 3.636 4.781 5.816 7.24 7.141 9.88 7.281c-.264-1.211.097-2.481.95-3.333 1.322-1.32 3.402-1.253 4.644.151a6.356 6.356 0 0 0 2.085-.847 3.473 3.473 0 0 1-1.443 1.93A6.23 6.23 0 0 0 18 4.632a6.917 6.917 0 0 1-1.638 1.808Z" ></path></svg>