<svg width="24" height="24" fill="none" xmlns="http://www.w3.org/2000/svg"><path fill-rule="evenodd" clip-rule="evenodd" d="M9.477 9.453c-.038.144-.103.28-.192.398a1.558 1.558 0 0 1-.64.49 2.463 2.463 0 0 1-.712.189c-.05.006-.103.01-.154.014h-.008a.727.727 0 0 0-.676.542 1.836 1.836 0 0 0-.041.228c-.014.116-.022.234-.03.363-.005.092-.011.189-.02.293-.053.426-.176.84-.363 1.226l-.116.237c-.206.414-.392.788-.339 1.288.042.386.239.644.5.91.125.128.29.237.46.35.479.317 1.007.666.833 1.545-.143.713-1.32 1.46-2.974 1.721.16-.024-.193-.63-.232-.697l-.003-.004a14.965 14.965 0 0 0-.138-.212c-.135-.204-.27-.407-.374-.631-.276-.587-.404-1.265-.291-1.908.102-.582.486-1.046.855-1.494.06-.073.12-.145.178-.218.493-.615 1.01-1.42 1.125-2.219.01-.07.019-.145.028-.225.016-.142.034-.297.062-.451.04-.267.124-.526.246-.766.084-.158.194-.3.325-.42a.42.42 0 0 0 .081-.512L4.23 4.73l3.788 4.69a.472.472 0 0 0 .725.016.322.322 0 0 0 .01-.405c-.176-.226-.36-.455-.542-.683l-.22-.276-.953-1.184-1.914-2.364L3 2l2.37 2.312 2.036 2.26 1.016 1.132.28.315c.244.273.488.546.732.836l.055.067.012.105c.016.142.008.286-.024.426Zm9.742 1.59.004.007c0-.505-.312-1.338-.943-2.139l-.014-.02a6.301 6.301 0 0 0-.768-.798 5.26 5.26 0 0 0-.95-.662l-.024-.012c-1.067-.584-2.456-.884-4.168-.546a8.46 8.46 0 0 0-.742-.793 4.267 4.267 0 0 0-1.4-.893A3.561 3.561 0 0 0 8.6 4.99a4.183 4.183 0 0 1 1.511.433 4.52 4.52 0 0 1 1.213.951c.353.393.683.804.992 1.231l.077.101c.301.395.608.796.991 1.153.21.199.445.37.7.51a3.19 3.19 0 0 0 .398.174c.13.05.265.093.4.131.54.155 1.091.21 1.63.24l.225.011c.193.01.384.02.572.033.258.015.513.056.763.12.376.099.706.323.937.636.078.105.148.215.21.33ZM17.64 8.217a8.129 8.129 0 0 0-.135-.123l.04.038.095.085Zm-.674 4.982c-1.734-.706-3.548-1.445-3.278-3.518.579.62 1.488.75 2.476.892.897.128 1.86.266 2.7.788 1.985 1.23 1.695 3.62 1.021 4.499.06-1.447-1.398-2.041-2.919-2.66Zm-6.987-1.037c.458-.044 1.433-.283.997-1.054a.972.972 0 0 0-.919-.467.901.901 0 0 0-.78.683c-.135.504.008.905.702.838Zm-.132-6.098c-.287-.332-.733-.507-1.17-.57-.016.109-.026.219-.03.329-.02.909.302 1.906.924 2.6.199.224.439.408.707.541.155.076.566.264.719.095a.11.11 0 0 0 .012-.11c-.025-.072-.074-.138-.122-.203-.034-.046-.069-.092-.094-.14-.026-.049-.053-.096-.08-.143a2.213 2.213 0 0 1-.144-.273c-.104-.252-.159-.52-.213-.787-.01-.054-.022-.107-.033-.16-.083-.413-.189-.846-.476-1.179Zm6.136 7.248c-.446 1.248.273 2.302.987 3.35.8 1.171 1.593 2.335.746 3.754 1.646-.681 2.427-2.742 1.744-4.376-.43-1.034-1.467-1.595-2.43-2.115-.373-.202-.736-.397-1.047-.613Zm-4.816 2.979c-.298.122-.579.282-.836.477a6.067 6.067 0 0 1 1.82-.36c.113-.008.226-.013.34-.018.198-.01.399-.018.604-.036.336-.023.667-.09.985-.203.333-.116.636-.306.887-.554.254-.257.432-.579.514-.93a2.077 2.077 0 0 0-.527-1.878c.113.288.183.592.207.902.02.288-.02.577-.115.849-.094.258-.247.49-.448.676a2.29 2.29 0 0 1-.707.44c-.362.147-.771.206-1.198.269-.194.028-.392.057-.591.095-.32.059-.633.15-.934.27Zm5.17 5.15-.028.024c-.076.06-.152.123-.235.178-.105.07-.215.131-.33.184-.237.117-.5.176-.764.174-.717-.014-1.224-.55-1.52-1.155-.079-.159-.147-.322-.216-.486-.11-.262-.219-.524-.367-.766-.343-.562-.93-1.014-1.618-.93-.28.035-.543.161-.699.405-.41.638.179 1.532.93 1.406a.673.673 0 0 0 .351-.152.753.753 0 0 0 .228-.332c.05-.135.06-.28.032-.422a.58.58 0 0 0-.242-.36.616.616 0 0 1 .314.338c.059.154.074.32.044.483a.957.957 0 0 1-.215.456.94.94 0 0 1-.202.172 1.18 1.18 0 0 1-.765.168 1.401 1.401 0 0 1-.786-.387 2.536 2.536 0 0 1-.361-.386 3.844 3.844 0 0 0-.148-.155 2.917 2.917 0 0 0-.837-.614 3.117 3.117 0 0 0-.675-.21 4.483 4.483 0 0 0-.352-.057l-.068-.01c-.099-.018-.26-.046-.287-.02a7.39 7.39 0 0 1 1.186-.893c.436-.259.904-.46 1.392-.597a3.956 3.956 0 0 1 1.556-.12c.269.033.532.1.782.203.263.105.505.256.716.444.21.198.378.434.498.696.107.246.188.502.24.765.027.142.048.298.07.459.098.734.211 1.58 1.053 1.728.054.01.108.018.162.023l.168.004c.116-.008.23-.025.343-.05.234-.054.463-.133.682-.233l-.032.026Zm-6.405-1.338.061.068-.025-.028-.036-.04Z" fill="#595959"></path></svg>