<svg width="12" height="12" fill="none" xmlns="http://www.w3.org/2000/svg"><path fill-rule="evenodd" clip-rule="evenodd" d="M4.987.104A.775.775 0 0 0 3.93.387L3.345 1.4h-1.17a.775.775 0 0 0-.775.775v1.17l-1.013.584a.775.775 0 0 0-.283 1.058L.689 6 .104 7.013A.775.775 0 0 0 .387 8.07l1.013.585v1.169c0 .428.347.775.775.775h1.17l.584 1.013a.775.775 0 0 0 1.058.283L6 11.311l1.013.585a.775.775 0 0 0 1.058-.284l.585-1.012h1.17a.775.775 0 0 0 .774-.775v-1.17l1.013-.584a.775.775 0 0 0 .283-1.058L11.311 6l.585-1.013a.775.775 0 0 0-.284-1.058L10.6 3.344v-1.17a.775.775 0 0 0-.775-.774h-1.17L8.072.387A.775.775 0 0 0 7.013.104L6 .689 4.987.104Zm4.182 4.46a.64.64 0 0 0 .162-.476.63.63 0 0 0-.237-.445.673.673 0 0 0-.495-.146.682.682 0 0 0-.453.24l-2.864 3.33L3.8 5.63a.678.678 0 0 0-.934.008.635.635 0 0 0-.008.904l1.998 1.936a.669.669 0 0 0 .501.188.683.683 0 0 0 .481-.231l3.33-3.871Z" fill="#44927A"></path></svg>